<?xml version="1.0" encoding="utf-8"?>
<svg version="1.1" id="Layer_1" xmlns="http://www.w3.org/2000/svg" xmlns:xlink="http://www.w3.org/1999/xlink" x="0px"
	y="0px" viewBox="0 0 512 512" style="enable-background:new 0 0 512 512;" xml:space="preserve">
	<style type="text/css">
		.st0 {
			fill: #FFFFFF;
		}

		.st1 {
			fill: #23b370;
		}
	</style>
	<path class="st0" d="M11,136" />
	<g>
		<path class="st1"
			d="M426,0H86C38.5,0,0,38.5,0,86V426c0,47.5,38.5,86,86,86H426c47.5,0,86-38.5,86-86V86C512,38.6,473.5,0,426,0z" />
		<path
			d="M448,93.9c-2.9,6.8-8.1,9.1-15.4,9.1c-117.8-0.1-235.6-0.1-353.6-0.1c-1.3,0-2.5,0-3.8,0c-6.3-0.4-11.1-5.8-11.1-12
		c0-6.2,4.8-11.4,11.1-12c1.5-0.1,3,0,4.5,0c117.5,0,234.9,0,352.4-0.1c7.4,0,12.8,2.1,15.8,9.1C448,89.9,448,91.9,448,93.9z" />
		<path d="M448,205.7c-2.7,6.7-7.7,9.3-14.9,9.3c-118-0.1-236.2-0.1-354.2-0.1c-2.1,0-4.3,0-6.3-0.5c-5.1-1.5-8.7-6.6-8.5-11.9
		c0.2-5.6,4.2-10.2,9.8-11.2c1.7-0.3,3.5-0.3,5.2-0.3c117.9,0,235.9,0,353.8-0.1c7.4,0,12.5,2.5,15.1,9.7
		C448,202.2,448,204,448,205.7z" />
		<path d="M281.3,438.9c0-59.9,0-119,0-178.7c51.6,29.8,102.8,59.4,154.8,89.3C384.2,379.4,333,409,281.3,438.9z" />
		<path
			d="M143.6,439c-22.3,0-44.7,0.1-67.1,0c-9.4,0-15.2-9-11.2-17.2c2.3-4.7,6.3-6.8,11.5-6.8c20.2,0,40.5,0,60.7,0
		c24.4,0,49,0,73.4,0c5.9,0,10.6,3.7,12,9c1.4,5.2-0.9,11-5.8,13.3c-2.2,1-5,1.6-7.6,1.6C187.6,439,165.7,439,143.6,439z" />
		<path d="M143.7,303c22.2,0,44.5,0,66.7,0c8.7,0,14.2,6.3,12.6,14.3c-0.8,4.7-3.9,7.8-8.4,9.1c-1.8,0.5-3.7,0.6-5.6,0.6
		c-43.3,0-86.7,0-130.1,0c-2.6,0-5.4-0.2-7.7-1.2c-5.2-2-8.2-7.7-7.1-13c1-5.5,5.6-9.5,11.3-9.8c5.9-0.2,11.8-0.1,17.6-0.1
		C110,303,126.8,303,143.7,303z" />
	</g>
</svg>